PathFileType	4	(X/Y/Z)	/Users/itak/Documents/Research/Walk-IL/dataset/trc/00515_00183.trc
DataRate	CameraRate	NumFrames	NumMarkers	Units	OrigDataRate	OrigDataStartFrame	OrigNumFrames
100.000000	100.000000	4	55	mm	100.000000	390	521
Frame#	Time	RPSI			LPSI			L3			STRN			T10			C7			CLAV			RBAK			LBAK			LSHO			LUPA			LAEL			LAOL			LWTS			LWPS			LFRA			LIFD			LHPS			LHTS			RSHO			RUPA			RAEL			RAOL			RWTS			RWPS			RFRA			RIFD			RHTS			RHPS			RBHD			LFHD			RFHD			LBHD			LHIP			RHIP			RASI			LASI			LKNE			LTHI			LANK			LTIP			LTOE			LMT1			LMT5			LHEE			RKNE			RTHI			RANK			RTIP			RTOE			RMT1			RMT5			RHEE			*53			*54			
		X1	Y1	Z1	X2	Y2	Z2	X3	Y3	Z3	X4	Y4	Z4	X5	Y5	Z5	X6	Y6	Z6	X7	Y7	Z7	X8	Y8	Z8	X9	Y9	Z9	X10	Y10	Z10	X11	Y11	Z11	X12	Y12	Z12	X13	Y13	Z13	X14	Y14	Z14	X15	Y15	Z15	X16	Y16	Z16	X17	Y17	Z17	X18	Y18	Z18	X19	Y19	Z19	X20	Y20	Z20	X21	Y21	Z21	X22	Y22	Z22	X23	Y23	Z23	X24	Y24	Z24	X25	Y25	Z25	X26	Y26	Z26	X27	Y27	Z27	X28	Y28	Z28	X29	Y29	Z29	X30	Y30	Z30	X31	Y31	Z31	X32	Y32	Z32	X33	Y33	Z33	X34	Y34	Z34	X35	Y35	Z35	X36	Y36	Z36	X37	Y37	Z37	X38	Y38	Z38	X39	Y39	Z39	X40	Y40	Z40	X41	Y41	Z41	X42	Y42	Z42	X43	Y43	Z43	X44	Y44	Z44	X45	Y45	Z45	X46	Y46	Z46	X47	Y47	Z47	X48	Y48	Z48	X49	Y49	Z49	X50	Y50	Z50	X51	Y51	Z51	X52	Y52	Z52	X53	Y53	Z53	X54	Y54	Z54	X55	Y55	Z55	

391	3.9	749.6652221679688	932.1471557617188	-21.4398193359375	836.148681640625	931.6224365234375	-110.5253067016602	785.9798583984375	1006.576904296875	-67.76960754394531	937.181396484375	1184.21044921875	78.58522796630859	765.237548828125	1110.608764648438	-69.3912353515625	780.1576538085938	1341.325805664062	-37.06537628173828	902.067626953125	1276.756103515625	56.87017440795898	695.9974975585938	1212.986083984375	-2.410877704620361	818.6171875	1289.795166015625	-120.6648712158203	933.1707763671875	1346.449829101562	-119.3205642700195	965.8726196289062	1224.5205078125	-177.9635314941406	998.7453002929688	1017.779846191406	-206.2679901123047	902.7479858398438	1002.424255371094	-183.0762634277344	1066.853759765625	829.6743774414062	-136.5261688232422	1018.423217773438	792.58154296875	-208.7964019775391	1019.622741699219	932.5112915039062	-203.3230438232422	1075.07958984375	672.7156982421875	-132.8422241210938	1043.26904296875	741.6456909179688	-197.4452514648438	1088.5830078125	754.0111083984375	-151.9084625244141	727.2118530273438	1333.228637695312	111.2823028564453	683.6508178710938	1263.029418945312	147.3981628417969	700.7510375976562	997.814697265625	210.9476623535156	681.8252563476562	970.8781127929688	153.7933349609375	857.9091186523438	843.3843994140625	261.6120300292969	781.4910888671875	794.4222412109375	273.0238342285156	712.4051513671875	945.8546142578125	225.8234710693359	908.7046508789062	697.878173828125	296.7012634277344	886.1270751953125	764.3681030273438	307.3599243164062	821.8251342773438	737.3585205078125	297.0086669921875	757.320556640625	1495.421752929688	66.39987182617188	947.0352783203125	1559.851318359375	62.73532104492188	855.4734497070312	1541.654296875	150.4513549804688	861.0146484375	1514.78369140625	-54.30377960205078	1013.766967773438	879.1740112304688	-118.939582824707	741.3428955078125	835.023681640625	143.4462280273438	853.6725463867188	892.0299072265625	169.4053649902344	1015.395080566406	921.3751220703125	-6.592144966125488	1136.758178710938	505.1134338378906	46.18368530273438	1102.093505859375	647.7125854492188	-14.3701057434082	1093.857788085938	102.8420867919922	-116.2289047241211	1135.80859375	369.1437683105469	-2.134784936904907	1199.418579101562	46.94742202758789	40.23473358154297	1123.442749023438	49.64103698730469	22.59206581115723	1180.53759765625	75.34015655517578	-62.1177978515625	1020.042541503906	96.30955505371094	-100.1759719848633	825.6533203125	453.5133056640625	82.76374816894531	780.502197265625	705.3496704101562	154.5584106445312	791.1643676757812	47.5326042175293	-64.67798614501953	846.6271362304688	311.3948669433594	44.41558837890625	957.8649291992188	32.10763549804688	56.81379699707031	942.025634765625	35.20138549804688	-18.76271629333496	856.6448974609375	37.95989227294922	27.04550743103027	793.3756103515625	39.82984924316406	-135.2856903076172	nan	nan	nan	nan	nan	nan	
392	3.91	756.6431274414062	931.5974731445312	-19.07446670532227	844.8467407226562	931.0560913085938	-106.5719833374023	793.7965698242188	1005.868896484375	-64.39613342285156	942.2909545898438	1183.408081054688	84.59790802001953	772.89892578125	1109.896728515625	-66.55879211425781	787.1837768554688	1340.529907226562	-33.62590026855469	907.497802734375	1275.9248046875	62.27279281616211	702.4329833984375	1212.141845703125	-0.6763256788253784	827.0477294921875	1289.069702148438	-116.6178512573242	941.550537109375	1345.644653320312	-113.3585205078125	974.8272705078125	1223.662353515625	-171.5759582519531	1007.118225097656	1016.889709472656	-199.952392578125	910.8720092773438	1001.86181640625	-177.6907958984375	1073.510864257812	827.99462890625	-130.4999084472656	1025.475708007812	791.6647338867188	-203.3737487792969	1027.500610351562	931.43310546875	-197.2047729492188	1080.730346679688	670.9913330078125	-127.5523681640625	1050.030517578125	740.577392578125	-192.2776794433594	1094.893310546875	752.2736206054688	-146.0732116699219	731.7752685546875	1332.205444335938	113.8808288574219	687.9199829101562	1261.775390625	149.632080078125	708.0296630859375	997.1007690429688	214.9789886474609	689.125244140625	969.515380859375	158.1302795410156	867.7747802734375	845.53662109375	266.1964721679688	792.1803588867188	795.6834106445312	279.3180541992188	720.272216796875	945.4381713867188	230.3889770507812	921.0460205078125	701.2738037109375	302.8161010742188	897.6513671875	767.6435546875	312.7275390625	833.6685791015625	739.5721435546875	303.3716125488281	763.6423950195312	1494.890258789062	70.39434814453125	953.6553344726562	1558.571899414062	68.08524322509766	861.414794921875	1540.729614257812	155.1326751708984	868.2622680664062	1513.683471679688	-49.54677963256836	1022.556945800781	878.5382080078125	-111.4934997558594	744.8828125	834.3706665039062	145.5779266357422	856.6749267578125	891.1090698242188	173.6481475830078	1021.873352050781	920.7613525390625	0.889268159866333	1143.8701171875	505.854736328125	56.79578399658203	1109.438720703125	647.5145874023438	-5.36721658706665	1120.92626953125	96.6513671875	-93.85802459716797	1149.442749023438	368.1434020996094	12.73994731903076	1218.7197265625	48.38139724731445	69.69779205322266	1143.999877929688	48.90982818603516	47.90457153320312	1205.178955078125	72.62986755371094	-34.41214370727539	1046.579833984375	89.52651214599609	-81.39316558837891	828.154541015625	452.8765563964844	84.94638061523438	783.575927734375	704.6444702148438	157.0574645996094	791.403076171875	47.83846664428711	-64.71643829345703	848.4419555664062	310.7901916503906	45.75732803344727	957.84765625	32.0633430480957	56.89269638061523	942.150146484375	34.99624252319336	-18.72336196899414	856.796875	38.02076721191406	27.03289031982422	793.5088500976562	40.18255996704102	-135.2913970947266	nan	nan	nan	nan	nan	nan	
393	3.92	763.6050415039062	930.9747314453125	-16.53124809265137	853.43896484375	930.3663940429688	-102.4615173339844	801.5761108398438	1005.064453125	-61.00727844238281	947.407958984375	1182.52294921875	90.58332061767578	780.5573120117188	1109.0947265625	-63.68275451660156	794.2384643554688	1339.645874023438	-30.17080879211426	912.9378051757812	1275.016357421875	67.65684509277344	708.9326782226562	1211.22021484375	1.087495446205139	835.49365234375	1288.250732421875	-112.5533294677734	949.91650390625	1344.753662109375	-107.3685989379883	983.8230590820312	1222.710083007812	-165.1155090332031	1015.615844726562	1015.919372558594	-193.5011138916016	919.1279296875	1001.190551757812	-172.1724853515625	1080.248046875	826.1961669921875	-124.3602523803711	1032.674560546875	790.699951171875	-197.8914642333984	1035.503173828125	930.2675170898438	-190.9431304931641	1086.3798828125	669.16162109375	-122.1704635620117	1056.800048828125	739.3739624023438	-186.9493255615234	1101.253784179688	750.41748046875	-140.1258544921875	736.3951416015625	1331.103759765625	116.4485702514648	692.2546997070312	1260.429931640625	151.7969665527344	715.347412109375	996.3450317382812	218.8953247070312	696.4664916992188	968.1422729492188	162.32763671875	877.3428344726562	847.4400024414062	270.6473083496094	802.5450439453125	796.8038940429688	285.4072265625	728.1339111328125	945.0001831054688	234.8124084472656	932.8160400390625	704.371826171875	308.7652893066406	908.7125854492188	770.6397705078125	317.9443664550781	845.0438842773438	741.6435546875	309.5413208007812	769.9810180664062	1494.257690429688	74.39070129394531	960.259033203125	1557.2080078125	73.44853973388672	867.3546142578125	1539.713623046875	159.82177734375	875.5064697265625	1512.516845703125	-44.75189208984375	1031.138793945312	877.7225341796875	-104.0756225585938	748.5078735351562	833.697509765625	147.907958984375	859.82861328125	890.1404418945312	177.8744812011719	1028.35498046875	920.0321655273438	8.287932395935059	1150.960815429688	506.3767395019531	66.98495483398438	1116.699340820312	647.0889282226562	3.269269466400146	1147.088500976562	91.2193603515625	-70.90512847900391	1162.72705078125	367.3202819824219	27.51248168945312	1236.21240234375	50.31188201904297	99.20248413085938	1163.047485351562	48.82430648803711	73.31162261962891	1228.46435546875	70.41069030761719	-6.270423889160156	1072.328125	83.66117858886719	-62.07762908935547	830.7457275390625	452.2141723632812	87.20922088623047	786.779541015625	703.9185180664062	159.6697082519531	791.6445922851562	48.11249160766602	-64.71878051757812	850.336181640625	310.1677856445312	47.1542854309082	957.8121948242188	32.03277969360352	56.98908615112305	942.2710571289062	34.79948043823242	-18.66483116149902	856.9400634765625	38.07885360717773	27.0261287689209	793.6448974609375	40.5748405456543	-135.3040008544922	nan	nan	nan	nan	nan	nan	
394	3.93	770.548095703125	930.2772216796875	-13.81217479705811	861.9221801757812	929.5573120117188	-98.18717193603516	809.309814453125	1004.168762207031	-57.60189056396484	952.5458374023438	1181.559936523438	96.54342651367188	788.205810546875	1108.21435546875	-60.76234817504883	801.331298828125	1338.686767578125	-26.68696212768555	918.4042358398438	1274.036376953125	73.02842712402344	715.4910278320312	1210.237426757812	2.906749248504639	843.9462280273438	1287.344482421875	-108.4569396972656	958.2677612304688	1343.783447265625	-101.3514785766602	992.8552856445312	1221.673461914062	-158.5868835449219	1024.236572265625	1014.876586914062	-186.9183807373047	927.5073852539062	1000.421508789062	-166.5331726074219	1087.07470703125	824.3021850585938	-118.0955047607422	1040.040161132812	789.7001953125	-192.3490905761719	1043.635131835938	929.0330200195312	-184.5369110107422	1092.032958984375	667.2457885742188	-116.6699066162109	1063.578857421875	738.02587890625	-181.4321441650391	1107.675415039062	748.45947265625	-134.0455627441406	741.093017578125	1329.939819335938	119.0047607421875	696.6893920898438	1259.001342773438	153.8964996337891	722.6849365234375	995.564453125	222.7188720703125	703.8136596679688	966.7728881835938	166.4190979003906	886.59912109375	849.0899658203125	274.9754333496094	812.5665893554688	797.7691650390625	291.2767333984375	735.9721069335938	944.5474243164062	239.1106109619141	944.014404296875	707.1549682617188	314.5475463867188	919.30419921875	773.3377685546875	323.0194091796875	855.9306030273438	743.5435791015625	315.5255432128906	776.3458862304688	1493.534423828125	78.39235687255859	966.8546142578125	1555.77294921875	78.82080841064453	873.2940673828125	1538.625366210938	164.5171356201172	882.7479858398438	1511.292724609375	-39.91338348388672	1039.527587890625	876.750244140625	-96.68603515625	752.2031860351562	833.0032958984375	150.4450531005859	863.1371459960938	889.1265258789062	182.1003112792969	1034.851196289062	919.1961669921875	15.61833477020264	1158.088134765625	506.7162475585938	76.75220489501953	1123.93408203125	646.4877319335938	11.57330703735352	1172.178100585938	86.54341125488281	-47.4993782043457	1175.626953125	366.7071228027344	42.080322265625	1251.955200195312	52.68576431274414	128.4659118652344	1180.612548828125	49.34861755371094	98.61420440673828	1250.301879882812	68.66487884521484	22.08076858520508	1097.118530273438	78.71562957763672	-42.30781173706055	833.4053955078125	451.51904296875	89.53533935546875	790.0909423828125	703.16552734375	162.3833465576172	791.8986206054688	48.34817886352539	-64.70423126220703	852.2959594726562	309.5304870605469	48.5937385559082	957.7669677734375	32.01094436645508	57.09679412841797	942.3804321289062	34.61305999755859	-18.5931453704834	857.0757446289062	38.13644027709961	27.02404594421387	793.7965698242188	41.01066970825195	-135.3395538330078	nan	nan	nan	nan	nan	nan	
